<svg xmlns="http://www.w3.org/2000/svg" viewBox="0 0 260 260">
  <!-- 바이브코더 비글 (정지 포즈, 입 벌린 웃음) — 썸네일·캐러셀용. 움직이는 버전은 avatar.js -->
  <ellipse cx="130" cy="249" rx="70" ry="9" fill="rgba(0,0,0,.4)"/>
  <path d="M130 52 C200 52 226 104 226 152 C226 208 186 238 130 238 C74 238 34 208 34 152 C34 104 60 52 130 52 Z" fill="#fff" stroke="#26232b" stroke-width="6"/>
  <path d="M147 108 C175 102 193 121 191 147 C189 167 169 171 155 161 C141 149 135 117 147 108 Z" fill="#8a5530" opacity=".92"/>
  <ellipse cx="130" cy="180" rx="46" ry="33" fill="#fbf3e6"/>
  <path d="M66 58 C28 62 12 130 22 190 C28 222 62 226 74 200 C88 162 92 104 88 72 Z" fill="#8a5530" stroke="#26232b" stroke-width="5" stroke-linejoin="round"/>
  <path d="M194 58 C232 62 248 130 238 190 C232 222 198 226 186 200 C172 162 168 104 172 72 Z" fill="#8a5530" stroke="#26232b" stroke-width="5" stroke-linejoin="round"/>
  <g transform="translate(100 140)"><ellipse rx="9.5" ry="12.5" fill="#26232b"/><circle cx="-3" cy="-5" r="3.6" fill="#fff"/></g>
  <g transform="translate(160 140)"><ellipse rx="9.5" ry="12.5" fill="#26232b"/><circle cx="-3" cy="-5" r="3.6" fill="#fff"/></g>
  <ellipse cx="130" cy="161" rx="15" ry="11" fill="#26232b"/><ellipse cx="125" cy="157" rx="4.5" ry="2.6" fill="#fff" opacity=".6"/>
  <ellipse cx="78" cy="170" rx="13" ry="8" fill="#ff9aa6" opacity=".45"/><ellipse cx="182" cy="170" rx="13" ry="8" fill="#ff9aa6" opacity=".45"/>
  <g transform="translate(130 184)"><ellipse rx="15" ry="13" fill="#3a2320"/><ellipse cy="6" rx="9" ry="5" fill="#ff8a95"/></g>
  <path d="M86 226 Q130 244 174 226" stroke="#d97757" stroke-width="12" fill="none" stroke-linecap="round"/>
  <rect x="113" y="229" width="34" height="21" rx="6" fill="#ffd400" stroke="#26232b" stroke-width="3"/>
  <text x="130" y="244" text-anchor="middle" font-size="13" font-weight="900" fill="#26232b" font-family="Menlo, monospace">&lt;/&gt;</text>
</svg>
